<svg width="151px" height="46px" viewBox="0 0 151 46" version="1.1" xmlns="http://www.w3.org/2000/svg" xmlns:xlink="http://www.w3.org/1999/xlink">
    <g id="Symbols" stroke="none" stroke-width="1" fill="none" fill-rule="evenodd">
        <g id="header" transform="translate(-636.000000, -15.000000)">
            <g id="logo">
                <g transform="translate(636.000000, 15.000000)">
                    <g>
                        <g id="map-marker" fill="#E300FF" fill-rule="nonzero">
                            <path d="M17.4999519,0 C7.83585822,0 0,7.72394392 0,17.2500119 C0,21.1301387 1.2987791,24.7071781 3.49220002,27.5907282 L17.5000481,46 L31.5078,27.5907282 C33.7014133,24.7071781 35,21.1302335 35,17.2500119 C35,7.72394392 27.1641418,0 17.4999519,0 Z M17.4999519,28.7498933 C11.0571266,28.7498933 5.83344554,23.6010082 5.83344554,17.2500119 C5.83344554,10.8992051 11.0571266,5.74994075 17.4999519,5.74994075 C23.9429696,5.74994075 29.1664583,10.8992051 29.1664583,17.2500119 C29.1664583,23.601103 23.9430657,28.7498933 17.4999519,28.7498933 Z" id="Shape"></path>
                        </g>
                        <text id="RightHere" font-family="Lato-Light, Lato" font-size="24" font-weight="300" fill="#FFFFFF">
                            <tspan x="44" y="32">Right</tspan>
                            <tspan x="97.58" y="32" font-family="Lato-Black, Lato" font-weight="700">Here</tspan>
                        </text>
                    </g>
                </g>
            </g>
        </g>
    </g>
</svg>