
<svg width="20px" height="24px" viewBox="0 0 20 24" version="1.1" xmlns="http://www.w3.org/2000/svg" xmlns:xlink="http://www.w3.org/1999/xlink">
    <g id="Symbols" stroke="none" stroke-width="1" fill="none" fill-rule="evenodd">
        <g id="suggestion-item" transform="translate(-24.000000, -348.000000)" fill="#BFC5D1" fill-rule="nonzero">
            <g id="Group-3">
                <g transform="translate(24.000000, 348.000000)">
                    <g id="dislike">
                        <path d="M19.1857854,10.6814421 C19.4750215,9.63646352 19.3017682,8.19625751 18.3732876,7.33411159 C18.552412,6.60875536 18.5486009,5.69860944 18.1776824,4.89260086 C17.927691,4.34956223 17.5349356,3.92466953 17.0428841,3.6552103 C17.0257854,3.17345923 16.9087725,2.60374249 16.5681373,2.03969099 C16.0231416,1.1376824 15.0840515,0.511107296 13.7487039,0.177373391 C13.1871245,0.0368755365 11.9733219,0 11.9733219,0 L11.9444807,0 C9.69157082,0 7.07165665,0.909630901 4.35893562,2.66461803 L1.55011159,3.08446352 C0.711141631,3.21270386 0.093527897,3.91333906 0.093527897,4.76230043 L0.093527897,12.984618 C0.093527897,13.6754678 0.588978541,14.0023004 0.980291845,14.2649614 C1.19773391,14.4109185 1.49675536,14.6003433 1.83780258,14.8196395 C2.78925322,15.431176 4.38375966,16.4547296 4.9224721,16.9768584 C5.59550215,17.6296996 6.21764807,18.7749013 6.87491845,19.9873648 C7.29785408,20.7673133 7.73582833,21.5738369 8.24106438,22.3590386 C8.88412017,23.3582833 9.84751931,23.9313991 10.8837425,23.9313991 C11.7678283,23.9313991 12.6134936,23.4987811 13.1455107,22.7743519 C13.7373734,21.9683433 13.8867296,20.8997768 13.5550558,19.8425408 C13.1884635,18.6741631 12.719279,17.3106953 12.0193648,16.055691 C12.0112275,16.0409614 12.0035021,16.0252017 12.0201888,15.9969785 C12.0372876,15.9676223 12.0545923,15.9657682 12.071279,15.9657682 L17.1175622,15.9657682 C18.3512446,15.9657682 19.3281373,15.2738884 19.7308841,14.111897 C20.1313648,12.9569099 19.8872446,11.5660429 19.1857854,10.6814421 Z M17.1177682,14.7296137 L12.071485,14.7296137 C11.0836738,14.7296137 10.4589528,15.79303 10.9400858,16.655794 C11.5313305,17.7159142 11.9620944,18.8927382 12.3758627,20.2116052 C12.8229013,21.6361545 11.9248069,22.6947296 10.8841545,22.6947296 C10.3296824,22.6947296 9.73503863,22.3948841 9.28109871,21.6898197 C7.97572532,19.6614592 7.05651502,17.3307811 5.77648069,16.0891674 C4.76518455,15.1088755 1.3296824,13.1086352 1.3296824,12.984618 L1.3296824,4.76230043 C1.3296824,4.53012876 1.50767382,4.33277253 1.73716738,4.29764807 L4.70667811,3.84412017 C4.77290987,3.83392275 4.83872961,3.80920172 4.89476395,3.77242918 C7.5695794,2.01579399 9.97730472,1.20185408 11.9435536,1.20175107 C12.4733047,1.20175107 12.9710215,1.26087554 13.4336137,1.37654936 C15.7355536,1.95193133 15.8821288,3.36628326 15.7884979,4.10060086 C15.7582146,4.33781974 15.9086009,4.55474678 16.1395365,4.61634335 C17.3697167,4.944 17.4265751,6.61771674 17.0368069,7.42918455 C16.9279313,7.655897 17.0325837,7.9223691 17.2540429,8.04133906 C18.1722232,8.53503863 18.240103,9.97740773 17.8776309,10.6543519 C17.7739056,10.848206 17.8260258,11.0903691 17.9986609,11.2264378 C19.0049099,12.0193648 19.0595021,14.7296137 17.1177682,14.7296137 Z" id="Shape"></path>
                    </g>
                </g>
            </g>
        </g>
    </g>
</svg>