<svg width="27px" height="24px" viewBox="0 0 27 24" version="1.1" xmlns="http://www.w3.org/2000/svg" xmlns:xlink="http://www.w3.org/1999/xlink">
    <g id="Symbols" stroke="none" stroke-width="1" fill="none" fill-rule="evenodd">
        <g id="suggestion-item" transform="translate(-178.000000, -348.000000)" fill="#D75A4A" fill-rule="nonzero">
            <g id="Group-4">
                <g transform="translate(178.000000, 348.000000)">
                    <g id="like">
                        <path d="M12.9652174,4.23965217 C14.018087,1.74417391 16.4233043,0.00052173913 19.2208696,0.00052173913 C22.9893913,0.00052173913 25.7034783,3.22434783 26.0446957,7.06643478 C26.0446957,7.06643478 26.2288696,8.02017391 25.8234783,9.73721739 C25.2714783,12.0756522 23.973913,14.1532174 22.2245217,15.7387826 L12.9652174,24 L3.86191304,15.7382609 C2.11252174,14.1532174 0.814956522,12.0751304 0.262956522,9.73669565 C-0.142434783,8.01965217 0.0417391304,7.06591304 0.0417391304,7.06591304 C0.382956522,3.22382609 3.09704348,0 6.86556522,0 C9.66365217,0 11.9123478,1.74417391 12.9652174,4.23965217 Z" id="Shape"></path>
                    </g>
                </g>
            </g>
        </g>
    </g>
</svg>